<?xml version="1.0" encoding="utf-8"?><!-- Uploaded to: SVG Repo, www.svgrepo.com, Generator: SVG Repo Mixer Tools -->
<svg fill="#000000" width="800px" height="800px" viewBox="0 0 24 24" id="soundcloud" data-name="Flat Color" xmlns="http://www.w3.org/2000/svg" class="icon flat-color"><path id="secondary" d="M7,19a1,1,0,0,1-1-1V8A1,1,0,0,1,8,8V18A1,1,0,0,1,7,19ZM3,18a1,1,0,0,1-1-1V11a1,1,0,0,1,2,0v6A1,1,0,0,1,3,18Z" style="fill: rgb(44, 169, 188);"></path><path id="primary" d="M18.76,10.2A7,7,0,0,0,12,5a5.89,5.89,0,0,0-1.18.11,1,1,0,0,0-.82,1V18a1,1,0,0,0,1,1h6.5a4.49,4.49,0,0,0,1.26-8.8Z" style="fill: rgb(0, 0, 0);"></path></svg>